<svg xmlns="http://www.w3.org/2000/svg" xmlns:xlink="http://www.w3.org/1999/xlink" id="Layer_1" width="296.261" height="256.57" x="0" y="0" enable-background="new 0 0 296.261 256.57" version="1.1" viewBox="0 0 296.261 256.57" xml:space="preserve"><switch><g><g><polygon fill="#1C807A" points="74.066 256.57 0 128.285 74.065 0 222.196 0 296.261 128.285 222.196 256.57"/></g><path fill="#02263C" d="M194.005,96.972c-3.963,0-7.865,0.568-11.625,1.69c-11.305-12.968-27.506-20.364-44.773-20.364 c-31.911,0-58.026,25.376-59.347,57.073c-9.658,2.31-16.653,10.98-16.653,21.151c0,11.993,9.757,21.75,21.75,21.75h110.648 c22.414,0,40.648-18.235,40.648-40.65C234.653,115.208,216.419,96.972,194.005,96.972z M194.005,174.772H83.432 c-10.104,0-18.325-8.221-18.325-18.326c0-10.104,8.22-18.324,18.325-18.324c3.822,0,7.485,1.165,10.591,3.369l0.579-0.816 c-3.276-2.324-7.139-3.553-11.17-3.553c-0.577,0-1.146,0.037-1.71,0.087c0.264-30.598,25.227-55.411,55.885-55.411 c30.822,0,55.898,25.076,55.898,55.898h1c0-13.327-4.617-25.587-12.318-35.295c3.797-1.275,7.768-1.929,11.818-1.929 c20.484,0,37.148,16.666,37.148,37.15C231.153,158.106,214.489,174.772,194.005,174.772z"/></g></switch></svg>