<svg xmlns="http://www.w3.org/2000/svg" xmlns:xlink="http://www.w3.org/1999/xlink" id="Layer_1" width="296.262" height="256.57" x="0" y="0" enable-background="new 0 0 296.262 256.57" version="1.1" viewBox="0 0 296.262 256.57" xml:space="preserve"><switch><g><polygon fill="#02263C" points="74.066 256.57 0 128.285 74.066 0 222.197 0 296.262 128.285 222.197 256.57"/><polygon fill="none" points="178.211 99.988 194.479 99.988 170.106 75.113 170.106 91.717"/><polygon fill="none" points="186.755 108.707 186.755 165.76 194.825 165.76 194.825 100.488 178.701 100.488"/><polygon fill="none" points="161.464 82.896 169.606 91.207 169.606 74.75 126.364 74.75 126.364 82.822 161.391 82.822"/><path fill="#1C807A" d="M197.218,98.139L171.999,72.4l-0.882-0.9h-1.261h-43.742h-3v3v5.572h-5.57h-3v3v91.508v3h3h68.961h3v-3 v-5.57h5.57h3v-3v-65.771v-1.225L197.218,98.139z M126.364,74.75h43.242v16.457l-8.143-8.311l-0.073-0.074h-35.026V74.75z M161.535,83.686l24.374,24.873h-24.374V83.686z M170.106,91.717V75.113l24.373,24.875h-16.269L170.106,91.717z M186.255,174.33 h-68.461V83.322h43.241v25.736h25.22V174.33z M178.701,100.488h16.124v65.271h-8.07v-57.053L178.701,100.488z"/></g></switch></svg>