<svg xmlns="http://www.w3.org/2000/svg" xmlns:xlink="http://www.w3.org/1999/xlink" id="Layer_1" width="995.045" height="1443.362" x="0" y="0" enable-background="new 0 0 995.045 1443.362" version="1.1" viewBox="0 0 995.045 1443.362" xml:space="preserve"><switch><g><g><path fill="#1C807A" d="M586.383,667.784H408.741v-47.219h177.642V667.784z M409.741,666.784h175.642v-45.219H409.741V666.784z"/></g><g><path fill="#1C807A" d="M582.978,827.94h-170.83V666.784h170.83V827.94z M413.147,826.94h168.83V667.784h-168.83V826.94z"/></g><g><path fill="#1C807A" d="M567.124,815.946H428.542V741.52h138.582V815.946z M429.542,814.946h136.582V742.52H429.542V814.946z"/></g><g><path fill="#1C807A" d="M497.563,767.868c-4.409,0-7.995-3.585-7.995-7.992c0-4.408,3.586-7.994,7.995-7.994 c4.407,0,7.992,3.586,7.992,7.994C505.556,764.283,501.971,767.868,497.563,767.868z M497.563,752.881 c-3.857,0-6.995,3.138-6.995,6.994c0,3.855,3.138,6.992,6.995,6.992c3.855,0,6.992-3.137,6.992-6.992 C504.556,756.019,501.419,752.881,497.563,752.881z"/></g><g><path fill="#1C807A" d="M499.292,763.622h-3.408l0.324-3.945c-0.43-0.381-0.68-0.928-0.68-1.514c0-1.12,0.913-2.031,2.035-2.031 c1.12,0,2.031,0.911,2.031,2.031c0,0.573-0.241,1.113-0.657,1.495L499.292,763.622z M496.969,762.622h1.229l-0.307-3.438 l0.246-0.165c0.287-0.192,0.458-0.513,0.458-0.856c0-0.568-0.462-1.031-1.031-1.031c-0.571,0-1.035,0.463-1.035,1.031 c0,0.35,0.176,0.673,0.471,0.863l0.252,0.162L496.969,762.622z"/></g><g><path fill="#1C807A" d="M469.358,643.57c-0.273,0.413-1.216,1.297-1.642,1.592c-0.67,0.471-1.49,0.678-2.281,0.678h-5.17v6.747 h-3.71v-17.679h8.88c0.761,0,1.703,0.265,2.281,0.678c0.426,0.324,1.338,1.237,1.642,1.62c0.396,0.53,0.578,1.297,0.578,1.945 v2.504C469.937,642.362,469.754,643.01,469.358,643.57z M466.227,639.062c-0.152-0.235-0.487-0.56-0.791-0.707h-5.17v4.037h5.17 c0.091,0,0.608-0.413,0.791-0.708V639.062z"/><path fill="#1C807A" d="M492.409,650.023c-0.396,0.501-1.551,1.768-2.22,2.151c-0.518,0.294-1.277,0.56-2.008,0.56h-4.622 c-0.761,0-1.49-0.266-2.007-0.56c-0.67-0.384-1.855-1.65-2.221-2.151c-0.396-0.56-0.517-1.208-0.517-1.827v-8.868 c0-0.648,0.121-1.297,0.517-1.856c0.365-0.472,1.551-1.738,2.221-2.122c0.517-0.294,1.246-0.56,2.007-0.56h4.622 c0.73,0,1.49,0.266,2.008,0.56c0.669,0.384,1.824,1.65,2.22,2.122c0.396,0.56,0.517,1.208,0.517,1.856v8.868 C492.926,648.815,492.805,649.463,492.409,650.023z M489.216,639.328c-0.213-0.354-0.791-0.914-1.095-1.091h-4.471 c-0.243,0.177-0.76,0.619-1.125,1.12v8.839c0.335,0.442,0.852,0.943,1.095,1.091h4.471c0.243-0.177,0.79-0.678,1.125-1.091 V639.328z"/><path fill="#1C807A" d="M506.244,639.268v1.562c0,0.118,0.091,0.177,0.091,0.177l7.725,2.033 c1.673,0.442,2.524,1.975,2.524,3.418v1.738c0,0.472-0.152,1.238-0.548,1.827c-0.396,0.56-1.581,1.768-2.22,2.151 c-0.486,0.265-1.277,0.56-2.007,0.56h-4.653c-1.854,0-3.284-1.503-4.014-2.505c-0.396-0.53-0.761-1.148-1.034-1.886l3.437-1.031 c0.426,0.737,0.942,1.562,1.581,1.975h4.622c0.456-0.236,1.095-0.973,1.095-1.002v-1.738c0-0.147-0.091-0.177-0.091-0.177 c-2.524-0.648-5.14-1.355-7.694-2.004c-1.702-0.442-2.523-1.974-2.523-3.418v-1.62c0-0.53,0.091-1.268,0.486-1.856 c0.365-0.501,1.581-1.709,2.281-2.122c0.486-0.265,1.246-0.56,1.977-0.56h4.318c1.854,0,3.254,1.503,3.983,2.476 c0.486,0.647,0.791,1.267,1.034,1.886l-3.437,0.942c-0.396-0.796-0.761-1.296-1.611-1.856h-4.197 C506.883,638.473,506.244,639.239,506.244,639.268z"/><path fill="#1C807A" d="M533.673,638.355v14.231h-3.74v-14.231h-4.927v-3.447h13.563v3.447H533.673z"/></g><path fill="#1C807A" d="M594.831,587.987c-11.466,0-20.907,8.66-22.15,19.794H397.796v235.055h199.535V632.432 c11.135-1.244,19.795-10.685,19.795-22.15C617.126,597.97,607.144,587.987,594.831,587.987z M592.331,837.836H402.796V612.781 h169.885c1.151,10.313,9.337,18.499,19.65,19.65V837.836z M602.663,619.816h-13.141v-1.888h5.639v-16.449h-5.289v-1.887h7.543 v18.336h5.248V619.816z"/><g><g><g><path fill="#1C807A" d="M922.185,1144.963H813.071c-2.895,0-5.25-2.355-5.25-5.25v-130.275c0-2.895,2.355-5.25,5.25-5.25 h109.113c2.895,0,5.25,2.355,5.25,5.25v130.275C927.435,1142.608,925.079,1144.963,922.185,1144.963z M813.071,1004.688 c-2.619,0-4.75,2.131-4.75,4.75v130.275c0,2.619,2.131,4.75,4.75,4.75h109.113c2.619,0,4.75-2.131,4.75-4.75v-130.275 c0-2.619-2.131-4.75-4.75-4.75H813.071z"/></g><g><path fill="#1C807A" d="M922.649,1004.438c2.494,0,4.535,2.041,4.535,4.535v131.205c0,2.494-2.624,4.535-3.93,4.535v3.627 v8.467c0,1.996-1.633,3.629-3.628,3.629H815.63c-1.996,0-3.629-1.633-3.629-3.629v-8.467v-3.627 c-1.517,0-3.93-2.041-3.93-4.535v-131.205c0-2.494,2.041-4.535,4.535-4.535H922.649 M922.649,1002.438H812.606 c-3.604,0-6.535,2.932-6.535,6.535v131.205c0,2.662,1.865,5.036,3.93,6.035v2.127v8.467c0,3.104,2.525,5.629,5.629,5.629 h103.997c3.104,0,5.628-2.525,5.628-5.629v-8.467v-2.185c1.969-1.016,3.93-3.311,3.93-5.978v-131.205 C929.185,1005.37,926.253,1002.438,922.649,1002.438L922.649,1002.438z"/></g><g><path fill="#1C807A" d="M867.628,1092.434c-2.276,0-4.411-0.021-6.01-0.061l-33.655-0.824 c-3.576-0.087-6.485-3.068-6.485-6.646v-56.021c0-3.58,2.912-6.538,6.491-6.596l33.652-0.537c3.303-0.053,8.711-0.053,12.014,0 l33.652,0.537c3.579,0.058,6.491,3.016,6.491,6.596v56.021c0,3.578-2.909,6.56-6.486,6.646l-33.653,0.824 C872.039,1092.413,869.904,1092.434,867.628,1092.434z M867.628,1022.709c-2.172,0-4.344,0.013-5.991,0.039l-33.652,0.537 c-3.036,0.049-5.507,2.559-5.507,5.596v56.021c0,3.04,2.472,5.573,5.51,5.646l33.655,0.824 c1.591,0.039,3.717,0.061,5.985,0.061s4.395-0.021,5.986-0.061l33.653-0.824c3.039-0.073,5.511-2.606,5.511-5.646v-56.021 c0-3.037-2.471-5.547-5.507-5.596l-33.652-0.537C871.972,1022.722,869.8,1022.709,867.628,1022.709z"/></g><g><path fill="#1C807A" d="M916.51,1094.891h-97.764c-0.689,0-1.25-0.561-1.25-1.25v-73.99c0-0.689,0.561-1.25,1.25-1.25h97.764 c0.689,0,1.25,0.561,1.25,1.25v73.99C917.76,1094.331,917.199,1094.891,916.51,1094.891z M818.746,1018.901 c-0.413,0-0.75,0.337-0.75,0.75v73.99c0,0.413,0.337,0.75,0.75,0.75h97.764c0.413,0,0.75-0.337,0.75-0.75v-73.99 c0-0.413-0.337-0.75-0.75-0.75H818.746z"/></g><g><path fill="#1C807A" d="M922.255,1138.315H813.001c-0.689,0-1.25-0.561-1.25-1.25v-124.367c0-0.689,0.561-1.25,1.25-1.25 h109.254c0.689,0,1.25,0.561,1.25,1.25v124.367C923.505,1137.754,922.944,1138.315,922.255,1138.315z M813.001,1011.948 c-0.413,0-0.75,0.337-0.75,0.75v124.367c0,0.413,0.337,0.75,0.75,0.75h109.254c0.413,0,0.75-0.337,0.75-0.75v-124.367 c0-0.413-0.337-0.75-0.75-0.75H813.001z"/></g><g><path fill="#1C807A" d="M917.76,1122.594h-53.254v-13.006h53.254V1122.594z M865.006,1122.094h52.254v-12.006h-52.254V1122.094 z"/></g><g><rect width="4.414" height="5.828" x="909.144" y="1149.206" fill="#1C807A"/></g><g><polygon fill="#1C807A" points="899.977 1113.235 899.977 1115.034 868.278 1115.034 868.278 1117.149 899.977 1117.149 899.977 1118.946 913.278 1118.946 913.278 1113.235"/></g><g><path fill="#1C807A" d="M824.456,1132.366h-6.92c-0.827,0-1.5-0.673-1.5-1.5v-7.221c0-0.827,0.673-1.5,1.5-1.5h6.92 c0.827,0,1.5,0.673,1.5,1.5v7.221C825.956,1131.693,825.283,1132.366,824.456,1132.366z M817.536,1123.145 c-0.275,0-0.5,0.225-0.5,0.5v7.221c0,0.271,0.229,0.5,0.5,0.5h6.92c0.271,0,0.5-0.229,0.5-0.5v-7.221 c0-0.275-0.225-0.5-0.5-0.5H817.536z"/></g><g><path fill="#1C807A" d="M916.249,1156.706h-20.302v-9.172h20.302V1156.706z M896.447,1156.206h19.302v-8.172h-19.302V1156.206z"/></g></g><g><path fill="#1C807A" d="M867.627,936.463l126.418,72.987v145.975l-126.418,72.985l-126.416-72.985v-145.975L867.627,936.463 M867.627,935.309l-127.416,73.564v147.129l127.416,73.563l127.418-73.563v-147.129L867.627,935.309L867.627,935.309z"/></g></g><g><g><path fill="#1C807A" d="M127.418,936.463l126.416,72.987v145.975l-126.416,72.985L1,1155.425v-145.975L127.418,936.463 M127.418,935.309L0,1008.874v147.129l127.418,73.563l127.416-73.563v-147.129L127.418,935.309L127.418,935.309z"/></g><g><g><path fill="#1C807A" d="M181.974,1144.963H72.86c-2.895,0-5.25-2.355-5.25-5.25v-130.275c0-2.895,2.355-5.25,5.25-5.25h109.113 c2.895,0,5.25,2.355,5.25,5.25v130.275C187.224,1142.608,184.869,1144.963,181.974,1144.963z M72.86,1004.688 c-2.619,0-4.75,2.131-4.75,4.75v130.275c0,2.619,2.131,4.75,4.75,4.75h109.113c2.619,0,4.75-2.131,4.75-4.75v-130.275 c0-2.619-2.131-4.75-4.75-4.75H72.86z"/></g><g><path fill="#1C807A" d="M182.438,1004.438c2.494,0,4.535,2.041,4.535,4.535v131.205c0,2.494-2.624,4.535-3.93,4.535v3.627 v8.467c0,1.996-1.633,3.629-3.628,3.629H75.419c-1.996,0-3.629-1.633-3.629-3.629v-8.467v-3.627 c-1.517,0-3.93-2.041-3.93-4.535v-131.205c0-2.494,2.041-4.535,4.535-4.535H182.438 M182.438,1002.438H72.396 c-3.604,0-6.535,2.932-6.535,6.535v131.205c0,2.662,1.866,5.036,3.93,6.035v2.127v8.467c0,3.104,2.525,5.629,5.629,5.629 h103.997c3.103,0,5.628-2.525,5.628-5.629v-8.467v-2.185c1.969-1.016,3.93-3.311,3.93-5.978v-131.205 C188.974,1005.37,186.042,1002.438,182.438,1002.438L182.438,1002.438z"/></g><g><path fill="#1C807A" d="M127.417,1092.434c-2.276,0-4.411-0.021-6.01-0.061l-33.654-0.824 c-3.576-0.087-6.486-3.068-6.486-6.646v-56.021c0-3.58,2.912-6.538,6.491-6.596l33.652-0.537c3.304-0.053,8.71-0.053,12.014,0 l33.652,0.537c3.579,0.058,6.491,3.016,6.491,6.596v56.021c0,3.578-2.91,6.56-6.486,6.646l-33.654,0.824 C131.828,1092.413,129.693,1092.434,127.417,1092.434z M127.417,1022.709c-2.172,0-4.343,0.013-5.991,0.039l-33.652,0.537 c-3.037,0.049-5.507,2.559-5.507,5.596v56.021c0,3.04,2.472,5.573,5.51,5.646l33.654,0.824 c1.591,0.039,3.717,0.061,5.986,0.061s4.395-0.021,5.986-0.061l33.654-0.824c3.039-0.073,5.51-2.606,5.51-5.646v-56.021 c0-3.037-2.47-5.547-5.507-5.596l-33.652-0.537C131.76,1022.722,129.589,1022.709,127.417,1022.709z"/></g><g><path fill="#1C807A" d="M176.299,1094.891H78.535c-0.689,0-1.25-0.561-1.25-1.25v-73.99c0-0.689,0.561-1.25,1.25-1.25h97.764 c0.689,0,1.25,0.561,1.25,1.25v73.99C177.549,1094.331,176.988,1094.891,176.299,1094.891z M78.535,1018.901 c-0.414,0-0.75,0.337-0.75,0.75v73.99c0,0.413,0.336,0.75,0.75,0.75h97.764c0.414,0,0.75-0.337,0.75-0.75v-73.99 c0-0.413-0.336-0.75-0.75-0.75H78.535z"/></g><g><path fill="#1C807A" d="M182.044,1138.315H72.79c-0.689,0-1.25-0.561-1.25-1.25v-124.367c0-0.689,0.561-1.25,1.25-1.25h109.254 c0.689,0,1.25,0.561,1.25,1.25v124.367C183.294,1137.754,182.733,1138.315,182.044,1138.315z M72.79,1011.948 c-0.414,0-0.75,0.337-0.75,0.75v124.367c0,0.413,0.336,0.75,0.75,0.75h109.254c0.414,0,0.75-0.337,0.75-0.75v-124.367 c0-0.413-0.336-0.75-0.75-0.75H72.79z"/></g><g><path fill="#1C807A" d="M177.549,1122.594h-53.254v-13.006h53.254V1122.594z M124.795,1122.094h52.254v-12.006h-52.254 V1122.094z"/></g><g><rect width="4.414" height="5.828" x="168.933" y="1149.206" fill="#1C807A"/></g><g><polygon fill="#1C807A" points="159.766 1113.235 159.766 1115.034 128.067 1115.034 128.067 1117.149 159.766 1117.149 159.766 1118.946 173.067 1118.946 173.067 1113.235"/></g><g><path fill="#1C807A" d="M84.245,1132.366h-6.92c-0.827,0-1.5-0.673-1.5-1.5v-7.221c0-0.827,0.673-1.5,1.5-1.5h6.92 c0.827,0,1.5,0.673,1.5,1.5v7.221C85.745,1131.693,85.072,1132.366,84.245,1132.366z M77.325,1123.145 c-0.276,0-0.5,0.225-0.5,0.5v7.221c0,0.271,0.229,0.5,0.5,0.5h6.92c0.271,0,0.5-0.229,0.5-0.5v-7.221 c0-0.275-0.224-0.5-0.5-0.5H77.325z"/></g><g><path fill="#1C807A" d="M176.038,1156.706h-20.302v-9.172h20.302V1156.706z M156.236,1156.206h19.302v-8.172h-19.302V1156.206z"/></g></g></g><g><g><path fill="#1C807A" d="M497.561,1150.258l126.416,72.987v145.975l-126.416,72.987l-126.418-72.987v-145.975L497.561,1150.258 M497.561,1149.104l-127.418,73.564v147.129l127.418,73.564l127.416-73.564v-147.129L497.561,1149.104L497.561,1149.104z"/></g><g><g><path fill="#1C807A" d="M552.116,1358.758H443.003c-2.895,0-5.25-2.355-5.25-5.25v-130.273c0-2.895,2.355-5.25,5.25-5.25 h109.113c2.895,0,5.25,2.355,5.25,5.25v130.273C557.366,1356.403,555.011,1358.758,552.116,1358.758z M443.003,1218.485 c-2.619,0-4.75,2.131-4.75,4.75v130.273c0,2.619,2.131,4.75,4.75,4.75h109.113c2.619,0,4.75-2.131,4.75-4.75v-130.273 c0-2.619-2.131-4.75-4.75-4.75H443.003z"/></g><g><path fill="#1C807A" d="M552.581,1218.235c2.494,0,4.535,2.039,4.535,4.533v131.205c0,2.494-2.624,4.535-3.93,4.535v3.629 v8.467c0,1.994-1.633,3.627-3.628,3.627H445.562c-1.996,0-3.629-1.633-3.629-3.627v-8.467v-3.629 c-1.517,0-3.93-2.041-3.93-4.535v-131.205c0-2.494,2.041-4.533,4.535-4.533H552.581 M552.581,1216.235H442.538 c-3.604,0-6.535,2.931-6.535,6.533v131.205c0,2.662,1.866,5.036,3.93,6.035v2.129v8.467c0,3.103,2.525,5.627,5.629,5.627 h103.997c3.104,0,5.628-2.524,5.628-5.627v-8.467v-2.187c1.969-1.016,3.93-3.311,3.93-5.978v-131.205 C559.116,1219.166,556.185,1216.235,552.581,1216.235L552.581,1216.235z"/></g><g><path fill="#1C807A" d="M497.56,1306.231c-2.276,0-4.411-0.021-6.01-0.061l-33.654-0.824c-3.576-0.089-6.486-3.071-6.486-6.648 v-56.02c0-3.58,2.912-6.538,6.491-6.596l33.652-0.537c3.304-0.053,8.71-0.053,12.014,0l33.652,0.537 c3.579,0.058,6.491,3.016,6.491,6.596v56.02c0,3.577-2.909,6.56-6.485,6.648l-33.654,0.824 C501.971,1306.209,499.836,1306.231,497.56,1306.231z M497.56,1236.506c-2.172,0-4.343,0.013-5.991,0.039l-33.652,0.537 c-3.037,0.049-5.507,2.559-5.507,5.596v56.02c0,3.039,2.472,5.573,5.51,5.648l33.654,0.824 c1.591,0.039,3.717,0.061,5.986,0.061s4.395-0.021,5.986-0.061l33.653-0.824c3.039-0.075,5.511-2.609,5.511-5.648v-56.02 c0-3.037-2.471-5.547-5.507-5.596l-33.652-0.537C501.903,1236.519,499.731,1236.506,497.56,1236.506z"/></g><g><path fill="#1C807A" d="M546.441,1308.686h-97.764c-0.689,0-1.25-0.561-1.25-1.25v-73.99c0-0.689,0.561-1.25,1.25-1.25h97.764 c0.689,0,1.25,0.561,1.25,1.25v73.99C547.691,1308.125,547.131,1308.686,546.441,1308.686z M448.678,1232.696 c-0.414,0-0.75,0.337-0.75,0.75v73.99c0,0.413,0.336,0.75,0.75,0.75h97.764c0.413,0,0.75-0.337,0.75-0.75v-73.99 c0-0.413-0.337-0.75-0.75-0.75H448.678z"/></g><g><path fill="#1C807A" d="M552.187,1352.11H442.933c-0.689,0-1.25-0.561-1.25-1.25v-124.367c0-0.689,0.561-1.25,1.25-1.25 h109.254c0.689,0,1.25,0.561,1.25,1.25v124.367C553.437,1351.549,552.876,1352.11,552.187,1352.11z M442.933,1225.743 c-0.414,0-0.75,0.337-0.75,0.75v124.367c0,0.413,0.336,0.75,0.75,0.75h109.254c0.413,0,0.75-0.337,0.75-0.75v-124.367 c0-0.413-0.337-0.75-0.75-0.75H442.933z"/></g><g><path fill="#1C807A" d="M547.691,1336.389h-53.254v-13.006h53.254V1336.389z M494.938,1335.889h52.254v-12.006h-52.254 V1335.889z"/></g><g><rect width="4.414" height="5.826" x="539.075" y="1363.002" fill="#1C807A"/></g><g><polygon fill="#1C807A" points="529.908 1327.032 529.908 1328.829 498.21 1328.829 498.21 1330.944 529.908 1330.944 529.908 1332.743 543.21 1332.743 543.21 1327.032"/></g><g><path fill="#1C807A" d="M454.388,1346.161h-6.92c-0.827,0-1.5-0.673-1.5-1.5v-7.221c0-0.827,0.673-1.5,1.5-1.5h6.92 c0.827,0,1.5,0.673,1.5,1.5v7.221C455.888,1345.488,455.215,1346.161,454.388,1346.161z M447.468,1336.94 c-0.271,0-0.5,0.229-0.5,0.5v7.221c0,0.275,0.224,0.5,0.5,0.5h6.92c0.276,0,0.5-0.225,0.5-0.5v-7.221 c0-0.271-0.229-0.5-0.5-0.5H447.468z"/></g><g><path fill="#1C807A" d="M546.181,1370.5h-20.302v-9.17h20.302V1370.5z M526.379,1370h19.302v-8.17h-19.302V1370z"/></g></g></g><path fill="#1C807A" d="M497.563,494.452l196.785,113.615v227.23L497.563,948.911L300.777,835.297v-227.23L497.563,494.452 M497.563,488.679L295.777,605.181v233.003l201.786,116.5l201.785-116.5V605.181L497.563,488.679L497.563,488.679z"/><g><g><polygon fill="#1C807A" points="497.034 1149.883 496.997 1105.319 497.346 1104.842 508.138 1101.415 485.053 1094.086 485.053 1093.133 508.134 1085.805 485.053 1078.473 485.053 1077.52 508.138 1070.192 497.346 1066.764 496.997 1066.288 496.997 1037.585 485.053 1033.792 485.053 1032.838 508.138 1025.51 485.057 1018.178 485.057 1017.225 508.138 1009.897 485.053 1002.569 485.054 1001.616 497.096 997.822 497.059 952.396 498.059 952.396 498.096 998.188 497.747 998.665 486.862 1002.094 509.941 1009.42 509.941 1010.374 486.86 1017.702 509.941 1025.034 509.941 1025.987 486.856 1033.315 497.648 1036.743 497.997 1037.219 497.997 1065.921 509.941 1069.715 509.941 1070.668 486.856 1077.997 509.938 1085.329 509.938 1086.282 486.856 1093.61 509.941 1100.938 509.941 1101.891 497.998 1105.684 498.034 1149.883"/></g></g><g><polyline fill="none" stroke="#1C807A" stroke-linejoin="bevel" stroke-miterlimit="10" points="804.454 972.329 766.034 950.19 768.799 937.592 749.747 954.981 755.278 929.792 736.226 947.174 741.759 921.981 732.231 930.674 707.058 916.141 697.53 924.834 703.063 899.639 684.011 917.024 689.542 891.833 670.49 909.223 673.256 896.625 634.56 874.328"/></g><g><g><polygon fill="#1C807A" points="190.653 972.799 190.154 971.932 228.319 949.94 225.633 937.7 226.458 937.223 244.347 953.55 239.153 929.899 239.979 929.422 257.868 945.744 252.673 922.088 253.498 921.612 262.755 930.058 287.612 915.708 288.199 915.772 296.563 923.404 291.368 899.747 292.193 899.27 310.083 915.593 304.89 891.94 305.715 891.463 323.604 907.792 321.176 896.733 321.415 896.192 360.535 873.65 361.034 874.517 322.231 896.875 324.918 909.116 324.093 909.592 306.204 893.263 311.397 916.917 310.572 917.393 292.683 901.07 297.878 924.727 297.053 925.204 287.795 916.757 262.938 931.107 262.352 931.043 253.987 923.412 259.183 947.067 258.357 947.543 240.468 931.222 245.661 954.874 244.836 955.35 226.947 939.023 229.374 950.083 229.135 950.624"/></g></g><g><g><path fill="#1C807A" d="M495.336,176.32h-59.339v-39.692h59.339V176.32z M437.997,174.32h55.339v-35.692h-55.339V174.32z"/></g><g><path fill="#1C807A" d="M495.336,132.918h-59.339V93.226h59.339V132.918z M437.997,130.918h55.339V95.226h-55.339V130.918z"/></g><g><path fill="#1C807A" d="M559.121,156.049h-59.339v-39.692h59.339V156.049z M501.782,154.049h55.339v-35.692h-55.339V154.049z"/></g><g><path fill="#1C807A" d="M559.121,201.031h-59.339v-39.692h59.339V201.031z M501.782,199.031h55.339v-35.692h-55.339V199.031z"/></g><g><polygon fill="#1C807A" points="465.667 162.419 465.505 162.281 436.835 137.818 437.159 137.438 465.667 161.762 494.174 137.438 494.498 137.818"/></g><g><rect width=".499" height="29.036" x="447.791" y="151.379" fill="#1C807A" transform="matrix(0.6492 0.7606 -0.7606 0.6492 283.3685 -282.5955)"/></g><g><rect width="29.036" height=".499" x="468.775" y="165.647" fill="#1C807A" transform="matrix(0.7607 0.6491 -0.6491 0.7607 223.3467 -274.0143)"/></g><g><polygon fill="#1C807A" points="465.667 119.017 465.505 118.878 436.835 94.416 437.159 94.036 465.667 118.36 494.174 94.036 494.498 94.416"/></g><g><rect width=".499" height="29.035" x="447.791" y="107.977" fill="#1C807A" transform="matrix(0.6492 0.7606 -0.7606 0.6492 250.3555 -297.8218)"/></g><g><rect width="29.035" height=".499" x="468.775" y="122.245" fill="#1C807A" transform="matrix(0.7607 0.6491 -0.6491 0.7607 195.1632 -284.3937)"/></g><g><polygon fill="#1C807A" points="529.452 142.148 529.29 142.009 500.62 117.546 500.944 117.167 529.452 141.491 557.959 117.167 558.283 117.546"/></g><g><rect width=".499" height="29.035" x="511.576" y="131.108" fill="#1C807A" transform="matrix(0.6492 0.7606 -0.7606 0.6492 290.3268 -338.2242)"/></g><g><rect width="29.036" height=".499" x="532.559" y="145.376" fill="#1C807A" transform="matrix(0.7607 0.6491 -0.6491 0.7607 225.431 -320.2543)"/></g><g><polygon fill="#1C807A" points="529.452 187.13 529.29 186.992 500.62 162.529 500.944 162.149 529.452 186.473 557.959 162.149 558.283 162.529"/></g><g><rect width=".499" height="29.034" x="511.576" y="176.091" fill="#1C807A" transform="matrix(0.6492 0.7606 -0.7606 0.6492 324.5424 -322.4433)"/></g><g><rect width="29.035" height=".499" x="532.56" y="190.359" fill="#1C807A" transform="matrix(0.7607 0.6491 -0.6491 0.7607 254.616 -309.483)"/></g></g><g><path fill="#1C807A" d="M497.56,1.155l126.416,72.987v145.975L497.56,293.102l-126.417-72.986V74.142L497.56,1.155 M497.56,0 L370.143,73.564v147.129l127.417,73.563l127.416-73.563V73.564L497.56,0L497.56,0z"/></g><g><g><rect width="1" height="72.545" x="503.837" y="359.396" fill="#1C807A"/></g><g><rect width="1" height="83.399" x="497.06" y="336.282" fill="#1C807A"/></g><g><rect width="1" height="69.312" x="490.28" y="383.41" fill="#1C807A"/></g></g></g></switch></svg>