<svg xmlns="http://www.w3.org/2000/svg" xmlns:xlink="http://www.w3.org/1999/xlink" id="Layer_1" width="277.148" height="138.061" x="0" y="0" enable-background="new 0 0 277.148 138.061" version="1.1" viewBox="0 0 277.148 138.061" xml:space="preserve"><switch><g><g><path fill="#FFF" d="M0.895,131.373c0.429,0,0.856,0.035,0.856,0.248c0,4.652,3.33,4.543,5.475,4.543 c2.609,0,5.617,0.072,5.617-4.291c0-3.898-3.294-4.473-6.262-5.471c-2.932-1.002-6.258-2.004-6.258-6.297 c0-5.471,4.221-5.508,6.938-5.508c2.396,0,6.974,0.037,6.974,6.115c0,0.252-0.429,0.252-0.859,0.252 c-0.465,0-0.855,0-0.855-0.252c0-4.4-3.363-4.363-5.224-4.363c-2.251,0-5.26-0.143-5.26,3.719c0,3.295,2.865,3.971,5.439,4.795 c2.79,0.859,7.118,1.895,7.118,7.043c0,5.977-4.435,6.01-7.367,6.01c-2.646,0-7.226-0.033-7.226-6.295 C0,131.408,0.43,131.373,0.895,131.373z"/><path fill="#FFF" d="M27.481,120.998v-6.111c0-0.252,0.395-0.252,0.859-0.252c0.431,0,0.859,0,0.859,0.252v6.111 c0,4.043,1.537,9.729,2.897,14.236c1.646-4.471,2.86-9.977,2.896-9.977h2.292c0,0,1.25,5.469,2.826,9.977h0.106 c1.357-4.508,2.825-10.225,2.825-14.236c0-0.75,0.036-5.436,0.036-6.111c0-0.252,0.394-0.252,0.859-0.252 c0.464,0,0.858,0,0.858,0.252v6.111c0,4.26-1.575,10.697-3.33,16.172c-0.25,0.713-0.533,0.713-0.927,0.713h-0.752 c-0.394,0-0.646,0-0.895-0.75l-0.394-1.111c-0.645-1.824-1.464-4.865-2.325-8.227c-1.251,4.365-2.538,8.658-2.789,9.338 c-0.286,0.75-0.536,0.75-0.859,0.75h-0.859c-0.358,0-0.608,0-0.894-0.75C29.057,131.658,27.481,125.188,27.481,120.998z"/><path fill="#FFF" d="M79.194,116.387h-6.689c-0.214,0-0.214-0.396-0.214-0.859c0-0.502,0-0.893,0.214-0.893H87.6 c0.211,0,0.251,0.391,0.251,0.893c0,0.463-0.04,0.859-0.251,0.859h-6.655v21.279c0,0.217-0.394,0.217-0.856,0.217 c-0.501,0-0.894-0.033-0.894-0.217V116.387z"/><path fill="#FFF" d="M114.51,131.051c0.464,0,0.892,0,0.892,0.213c0,6.725-4.97,6.619-7.083,6.619 c-3.109,0-7.579-0.289-7.579-11.627c0-11.34,4.291-11.621,7.9-11.621c1.792,0,6.799,0,6.799,6.867 c0,0.209-0.429,0.209-0.893,0.209c-0.432,0-0.859,0-0.859-0.246c0-5.295-3.435-5.078-4.974-5.078 c-3.146,0-6.221-0.143-6.221,9.869c0,10.055,3.251,9.908,5.826,9.908c2.256,0,5.332,0.033,5.332-4.9 C113.65,131.014,114.045,131.051,114.51,131.051z"/><path fill="#FFF" d="M128.327,114.887c0-0.217,0.357-0.252,0.858-0.252c0.465,0,0.859,0.035,0.859,0.252v10.441h10.442 v-10.441c0-0.217,0.395-0.252,0.895-0.252c0.465,0,0.856,0.035,0.856,0.252v22.779c0,0.217-0.392,0.217-0.856,0.217 c-0.5,0-0.895,0-0.895-0.217v-10.588h-10.442v10.588c0,0.217-0.395,0.217-0.859,0.217c-0.501,0-0.858,0-0.858-0.217V114.887z"/><path fill="#FFF" d="M59.402,137.666c0,0.217-0.395,0.217-0.859,0.217c-0.501,0-0.858,0-0.858-0.217v-22.779 c0-0.217,0.357-0.252,0.858-0.252c0.465,0,0.859,0.035,0.859,0.252V137.666z"/><path fill="#FFF" d="M155.126,114.635c0,0,5.938,0,7.441,0c4.97,0,4.792,5.865,4.792,5.865s0.249,3.467-1.61,5.258 c3.219,1.357,3.04,6.115,3.04,6.115s0.288,6.01-5.435,6.01c-3.259,0-8.229,0-8.229,0V114.635z M162.853,125.367 c2.896,0,2.791-4.477,2.791-4.477s0.285-4.469-2.934-4.469c-1.144,0-5.829,0-5.829,0v8.945 C156.881,125.367,161.744,125.367,162.853,125.367z M163.532,136.164c3.541,0,3.541-3.719,3.541-4.326 c0-4.367-2.541-4.76-2.541-4.76h-7.651v9.086C156.881,136.164,161.636,136.164,163.532,136.164z"/><path fill="#FFF" d="M181.681,126.256c0-11.621,4.545-11.658,7.653-11.658c3.329,0,7.586,0.072,7.586,11.658 c0,11.594-4.294,11.627-7.586,11.627C186.262,137.883,181.681,137.883,181.681,126.256z M195.168,126.256 c0-10.334-3.259-9.906-5.866-9.906c-2.432,0-5.867-0.428-5.867,9.906c0,10.336,3.508,9.908,5.899,9.908 C191.873,136.164,195.168,136.633,195.168,126.256z"/><path fill="#FFF" d="M209.808,134.416c0-1.723,0.932-7.48,5.396-18.854c0.359-0.928,0.609-0.928,1.076-0.928h0.75 c0.432,0,0.646,0,1.006,0.928c4.537,11.66,5.324,16.922,5.324,18.854v3.25c0,0.217-0.537,0.217-0.859,0.217s-0.859,0-0.859-0.217 v-3.25c0-1.539-0.641-4.012-0.641-4.012h-8.836c0,0-0.643,2.717-0.643,4.012v3.25c0,0.217-0.535,0.217-0.855,0.217 c-0.322,0-0.859,0-0.859-0.217V134.416z M220.574,128.691c-1.434-5.688-3.828-11.842-4.008-11.842 c-0.248,0.539-2.539,6.514-3.936,11.842H220.574z"/><path fill="#FFF" d="M236.25,114.635c0,0,6.938,0,8.689,0c0.57,0,5.08,0.281,5.08,6.078c0,5.332-3.293,5.865-3.867,6.121 c-0.211,0.066-0.391,0.139-0.643,0.172l4.688,10.232c0,0.035,0,0.035,0,0.07c0,0.184-0.932,0.752-1.396,0.752 c-0.109,0-0.18-0.035-0.215-0.107l-4.934-10.838c-2.326,0-5.688,0-5.688,0s0,10.158,0,10.551c0,0.217-0.395,0.217-0.859,0.217 c-0.428,0-0.855-0.033-0.855-0.217C236.25,137.414,236.25,114.635,236.25,114.635z M245.367,125.4 c-0.143,0,2.932,0.252,2.932-4.652c0-4.361-3.039-4.361-3.396-4.361c-0.963,0-6.938,0-6.938,0v9.014 C237.964,125.4,244.65,125.4,245.367,125.4z"/><path fill="#FFF" d="M263.085,114.635c0,0,4.867,0,6.693,0c2.822,0,7.369-0.107,7.369,11.621 c0,11.555-4.473,11.627-7.084,11.627c-2.219,0-6.979,0-6.979,0V114.635z M270.031,136.164c1.928,0,5.361,0.393,5.361-9.834 c0-10.34-3.291-9.943-5.471-9.943c-1.861,0-5.117,0-5.117,0v19.777C264.804,136.164,267.49,136.164,270.031,136.164z"/></g><g><g><path fill="#FFF" d="M139.498,71.904l-11.203-10.627c1.361-2.293,1.074-5.295-0.899-7.268 c-1.168-1.17-2.698-1.754-4.228-1.754c-1.53,0-3.061,0.584-4.229,1.754c-2.337,2.336-2.337,6.119-0.002,8.455 c1.168,1.17,2.699,1.752,4.23,1.752c1.159,0,2.316-0.338,3.317-1.006l11.189,10.613L139.498,71.904z M120.811,60.592 c-1.298-1.297-1.297-3.412,0.002-4.709c0.629-0.631,1.465-0.977,2.354-0.977c0.889,0,1.725,0.346,2.354,0.977 c1.299,1.297,1.3,3.412,0.001,4.709c-0.629,0.631-1.466,0.977-2.354,0.977C122.277,61.568,121.441,61.223,120.811,60.592z"/><path fill="#FFF" d="M158.21,54.014c-1.17-1.17-2.7-1.758-4.232-1.758c-1.157,0-2.312,0.34-3.312,1.004L128.292,32 c1.364-2.295,1.08-5.299-0.896-7.273c-1.167-1.168-2.698-1.752-4.229-1.752c-1.529,0-3.061,0.584-4.228,1.752 c-2.337,2.336-2.337,6.121-0.002,8.457c1.168,1.168,2.699,1.752,4.229,1.752c1.157,0,2.313-0.334,3.313-1.004l22.373,21.264 c-1.362,2.295-1.076,5.299,0.898,7.273c1.167,1.166,2.696,1.752,4.227,1.752c1.531,0,3.063-0.586,4.231-1.752 C160.544,60.133,160.544,56.346,158.21,54.014z M120.812,31.309c-0.63-0.631-0.976-1.465-0.976-2.355 c0-0.887,0.347-1.725,0.978-2.354c0.629-0.631,1.465-0.975,2.354-0.975c0.89,0,1.726,0.344,2.354,0.975 c1.3,1.299,1.3,3.41,0.001,4.709c-0.629,0.633-1.466,0.977-2.355,0.977C122.279,32.285,121.441,31.941,120.812,31.309z M156.338,60.592c-0.631,0.631-1.469,0.98-2.359,0.98c-0.889,0-1.725-0.35-2.353-0.977c-1.3-1.297-1.3-3.416-0.001-4.713 c0.629-0.629,1.465-0.977,2.353-0.977c0.892,0,1.729,0.348,2.359,0.98C157.634,57.184,157.634,59.295,156.338,60.592z"/><path fill="#FFF" d="M158.21,24.727c-1.169-1.168-2.699-1.752-4.23-1.752c-1.159,0-2.316,0.338-3.318,1.008l-11.189-10.615 l-1.823,1.922l11.203,10.629c-1.359,2.293-1.073,5.291,0.9,7.266c1.167,1.168,2.697,1.752,4.228,1.752s3.061-0.584,4.228-1.752 C160.545,30.848,160.545,27.063,158.21,24.727z M156.333,31.309c-0.629,0.633-1.464,0.977-2.354,0.977 c-0.889,0-1.725-0.344-2.354-0.977c-1.299-1.297-1.3-3.41-0.002-4.709c0.63-0.631,1.467-0.975,2.355-0.975 c0.89,0,1.727,0.344,2.356,0.975C157.634,27.898,157.633,30.012,156.333,31.309z"/></g><g><path fill="#FFF" d="M138.574,87.189c-24.038,0-43.595-19.557-43.595-43.594C94.979,19.557,114.536,0,138.574,0 s43.595,19.557,43.595,43.596C182.168,67.633,162.612,87.189,138.574,87.189z M138.574,2.65 c-22.577,0-40.944,18.367-40.944,40.945c0,22.576,18.367,40.943,40.944,40.943s40.944-18.367,40.944-40.943 C179.518,21.018,161.151,2.65,138.574,2.65z"/></g></g></g></switch></svg>