<svg xmlns="http://www.w3.org/2000/svg" xmlns:xlink="http://www.w3.org/1999/xlink" id="Layer_1" width="582.039" height="112.328" x="0" y="0" enable-background="new 0 0 582.039 112.328" version="1.1" viewBox="0 0 582.039 112.328" xml:space="preserve"><switch><g><g><path fill="#1A1A1A" d="M124.231-433.598c0.429,0,0.856,0.035,0.856,0.248c0,4.652,3.33,4.543,5.475,4.543 c2.609,0,5.617,0.072,5.617-4.291c0-3.898-3.294-4.473-6.262-5.471c-2.932-1.002-6.258-2.004-6.258-6.297 c0-5.471,4.221-5.508,6.938-5.508c2.396,0,6.974,0.037,6.974,6.115c0,0.252-0.429,0.252-0.859,0.252 c-0.465,0-0.855,0-0.855-0.252c0-4.4-3.363-4.363-5.224-4.363c-2.251,0-5.26-0.143-5.26,3.719c0,3.295,2.865,3.971,5.439,4.795 c2.79,0.859,7.118,1.895,7.118,7.043c0,5.977-4.435,6.01-7.367,6.01c-2.646,0-7.226-0.033-7.226-6.295 C123.336-433.563,123.767-433.598,124.231-433.598z"/><path fill="#1A1A1A" d="M150.818-443.973v-6.111c0-0.252,0.395-0.252,0.859-0.252c0.431,0,0.859,0,0.859,0.252v6.111 c0,4.043,1.537,9.729,2.897,14.236c1.646-4.471,2.86-9.977,2.896-9.977h2.292c0,0,1.25,5.469,2.826,9.977h0.106 c1.357-4.508,2.825-10.225,2.825-14.236c0-0.75,0.036-5.436,0.036-6.111c0-0.252,0.394-0.252,0.859-0.252 c0.464,0,0.858,0,0.858,0.252v6.111c0,4.26-1.575,10.697-3.33,16.172c-0.25,0.713-0.533,0.713-0.927,0.713h-0.752 c-0.394,0-0.646,0-0.895-0.75l-0.394-1.111c-0.645-1.824-1.464-4.865-2.325-8.227c-1.251,4.365-2.538,8.658-2.789,9.338 c-0.286,0.75-0.536,0.75-0.859,0.75h-0.859c-0.358,0-0.608,0-0.894-0.75C152.394-433.313,150.818-439.783,150.818-443.973z"/><path fill="#1A1A1A" d="M202.53-448.584h-6.689c-0.214,0-0.214-0.396-0.214-0.859c0-0.502,0-0.893,0.214-0.893h15.095 c0.211,0,0.251,0.391,0.251,0.893c0,0.463-0.04,0.859-0.251,0.859h-6.655v21.279c0,0.217-0.394,0.217-0.856,0.217 c-0.501,0-0.894-0.033-0.894-0.217V-448.584z"/><path fill="#1A1A1A" d="M237.846-433.92c0.464,0,0.892,0,0.892,0.213c0,6.725-4.97,6.619-7.083,6.619 c-3.109,0-7.579-0.289-7.579-11.627c0-11.34,4.291-11.621,7.9-11.621c1.792,0,6.799,0,6.799,6.867 c0,0.209-0.429,0.209-0.893,0.209c-0.432,0-0.859,0-0.859-0.246c0-5.295-3.435-5.078-4.974-5.078 c-3.146,0-6.221-0.143-6.221,9.869c0,10.055,3.251,9.908,5.826,9.908c2.256,0,5.332,0.033,5.332-4.9 C236.987-433.957,237.381-433.92,237.846-433.92z"/><path fill="#1A1A1A" d="M251.664-450.084c0-0.217,0.357-0.252,0.858-0.252c0.465,0,0.859,0.035,0.859,0.252v10.441h10.442 v-10.441c0-0.217,0.395-0.252,0.895-0.252c0.465,0,0.856,0.035,0.856,0.252v22.779c0,0.217-0.392,0.217-0.856,0.217 c-0.5,0-0.895,0-0.895-0.217v-10.588h-10.442v10.588c0,0.217-0.395,0.217-0.859,0.217c-0.501,0-0.858,0-0.858-0.217V-450.084z"/><path fill="#1A1A1A" d="M182.738-427.305c0,0.217-0.395,0.217-0.859,0.217c-0.501,0-0.858,0-0.858-0.217v-22.779 c0-0.217,0.357-0.252,0.858-0.252c0.465,0,0.859,0.035,0.859,0.252V-427.305z"/><path fill="#1A1A1A" d="M278.462-450.336c0,0,5.938,0,7.441,0c4.97,0,4.792,5.865,4.792,5.865s0.249,3.467-1.61,5.258 c3.219,1.357,3.04,6.115,3.04,6.115s0.288,6.01-5.435,6.01c-3.259,0-8.229,0-8.229,0V-450.336z M286.189-439.604 c2.896,0,2.791-4.477,2.791-4.477s0.285-4.469-2.934-4.469c-1.144,0-5.829,0-5.829,0v8.945 C280.217-439.604,285.081-439.604,286.189-439.604z M286.869-428.807c3.541,0,3.541-3.719,3.541-4.326 c0-4.367-2.541-4.76-2.541-4.76h-7.651v9.086C280.217-428.807,284.972-428.807,286.869-428.807z"/><path fill="#1A1A1A" d="M305.017-438.715c0-11.621,4.545-11.658,7.653-11.658c3.329,0,7.586,0.072,7.586,11.658 c0,11.594-4.294,11.627-7.586,11.627C309.598-427.088,305.017-427.088,305.017-438.715z M318.504-438.715 c0-10.334-3.259-9.906-5.866-9.906c-2.432,0-5.867-0.428-5.867,9.906c0,10.336,3.508,9.908,5.899,9.908 C315.209-428.807,318.504-428.338,318.504-438.715z"/><path fill="#1A1A1A" d="M333.144-430.555c0-1.723,0.932-7.48,5.397-18.854c0.359-0.928,0.608-0.928,1.076-0.928h0.749 c0.432,0,0.647,0,1.006,0.928c4.538,11.66,5.324,16.922,5.324,18.854v3.25c0,0.217-0.537,0.217-0.858,0.217 c-0.322,0-0.859,0-0.859-0.217v-3.25c0-1.539-0.641-4.012-0.641-4.012h-8.836c0,0-0.644,2.717-0.644,4.012v3.25 c0,0.217-0.534,0.217-0.855,0.217c-0.322,0-0.859,0-0.859-0.217V-430.555z M343.911-436.279 c-1.434-5.688-3.829-11.842-4.008-11.842c-0.249,0.539-2.539,6.514-3.936,11.842H343.911z"/><path fill="#1A1A1A" d="M359.585-450.336c0,0,6.938,0,8.689,0c0.57,0,5.08,0.281,5.08,6.078c0,5.332-3.292,5.865-3.866,6.121 c-0.212,0.066-0.391,0.139-0.644,0.172l4.688,10.232c0,0.035,0,0.035,0,0.07c0,0.184-0.933,0.752-1.396,0.752 c-0.109,0-0.18-0.035-0.216-0.107l-4.934-10.838c-2.326,0-5.688,0-5.688,0s0,10.158,0,10.551c0,0.217-0.395,0.217-0.859,0.217 c-0.428,0-0.855-0.033-0.855-0.217C359.585-427.557,359.585-450.336,359.585-450.336z M368.703-439.57 c-0.143,0,2.933,0.252,2.933-4.652c0-4.361-3.039-4.361-3.396-4.361c-0.963,0-6.938,0-6.938,0v9.014 C361.3-439.57,367.986-439.57,368.703-439.57z"/><path fill="#1A1A1A" d="M386.422-450.336c0,0,4.867,0,6.692,0c2.823,0,7.369-0.107,7.369,11.621 c0,11.555-4.473,11.627-7.084,11.627c-2.219,0-6.978,0-6.978,0V-450.336z M393.368-428.807c1.927,0,5.36,0.393,5.36-9.834 c0-10.34-3.291-9.943-5.471-9.943c-1.861,0-5.116,0-5.116,0v19.777C388.141-428.807,390.826-428.807,393.368-428.807z"/></g><g><g><path fill="#1A1A1A" d="M48.286-410.332l-11.204-10.627c1.361-2.293,1.075-5.295-0.899-7.268 c-1.167-1.17-2.698-1.754-4.228-1.754c-1.53,0-3.06,0.584-4.228,1.754c-2.337,2.336-2.337,6.119-0.002,8.455 c1.168,1.17,2.7,1.752,4.23,1.752c1.159,0,2.316-0.338,3.318-1.006l11.189,10.613L48.286-410.332z M29.599-421.645 c-1.298-1.297-1.297-3.412,0.002-4.709c0.629-0.631,1.465-0.977,2.354-0.977s1.725,0.346,2.354,0.977 c1.299,1.297,1.3,3.412,0.001,4.709c-0.629,0.631-1.466,0.977-2.355,0.977C31.065-420.668,30.229-421.014,29.599-421.645z"/><path fill="#1A1A1A" d="M66.999-428.223c-1.169-1.17-2.7-1.758-4.232-1.758c-1.157,0-2.312,0.34-3.312,1.004l-22.375-21.26 c1.364-2.295,1.08-5.299-0.896-7.273c-1.167-1.168-2.698-1.752-4.228-1.752c-1.53,0-3.061,0.584-4.228,1.752 c-2.337,2.336-2.337,6.121-0.002,8.457c1.168,1.168,2.699,1.752,4.23,1.752c1.157,0,2.313-0.334,3.313-1.004l22.374,21.264 c-1.362,2.295-1.076,5.299,0.898,7.273c1.167,1.166,2.697,1.752,4.227,1.752c1.531,0,3.063-0.586,4.231-1.752 C69.333-422.104,69.333-425.891,66.999-428.223z M29.6-450.928c-0.629-0.631-0.976-1.465-0.976-2.355 c0-0.887,0.347-1.725,0.978-2.354c0.629-0.631,1.464-0.975,2.354-0.975c0.89,0,1.725,0.344,2.354,0.975 c1.299,1.299,1.299,3.41,0.001,4.709c-0.629,0.633-1.466,0.977-2.355,0.977C31.067-449.951,30.229-450.295,29.6-450.928z M65.126-421.645c-0.63,0.631-1.468,0.98-2.359,0.98c-0.889,0-1.725-0.35-2.353-0.977c-1.299-1.297-1.299-3.416,0-4.713 c0.628-0.629,1.464-0.977,2.353-0.977c0.891,0,1.729,0.348,2.359,0.98C66.423-425.053,66.423-422.941,65.126-421.645z"/><path fill="#1A1A1A" d="M66.999-457.51c-1.168-1.168-2.699-1.752-4.23-1.752c-1.159,0-2.317,0.338-3.319,1.008L48.26-468.869 l-1.823,1.922l11.203,10.629c-1.359,2.293-1.073,5.291,0.9,7.266c1.167,1.168,2.698,1.752,4.228,1.752 c1.53,0,3.061-0.584,4.228-1.752C69.333-451.389,69.333-455.174,66.999-457.51z M65.122-450.928 c-0.629,0.633-1.464,0.977-2.354,0.977s-1.725-0.344-2.354-0.977c-1.299-1.297-1.299-3.41-0.001-4.709 c0.629-0.631,1.466-0.975,2.355-0.975c0.89,0,1.727,0.344,2.356,0.975C66.423-454.338,66.422-452.225,65.122-450.928z"/></g><g><path fill="#1A1A1A" d="M47.362-395.047c-24.038,0-43.595-19.557-43.595-43.594c0-24.039,19.557-43.596,43.595-43.596 c24.039,0,43.595,19.557,43.595,43.596C90.957-414.604,71.4-395.047,47.362-395.047z M47.362-479.586 c-22.577,0-40.944,18.367-40.944,40.945c0,22.576,18.368,40.943,40.944,40.943c22.577,0,40.945-18.367,40.945-40.943 C88.307-461.219,69.939-479.586,47.362-479.586z"/></g></g><line x1=".061" x2=".061" y1=".049" y2="112.221" fill="none" stroke="#074057" stroke-miterlimit="10" stroke-width=".5"/><g><g><path fill="#FFF" d="M57.174,92.449L42.802,78.814c1.747-2.941,1.378-6.793-1.154-9.322c-1.499-1.502-3.462-2.25-5.424-2.25 c-1.963,0-3.926,0.748-5.425,2.25c-2.998,2.996-2.998,7.85-0.002,10.846c1.499,1.502,3.463,2.248,5.427,2.248 c1.487,0,2.972-0.434,4.256-1.291l14.355,13.617L57.174,92.449z M33.201,77.936c-1.665-1.664-1.664-4.377,0.002-6.041 c0.807-0.809,1.879-1.252,3.021-1.252c1.14,0,2.213,0.443,3.02,1.252c1.666,1.664,1.667,4.377,0.001,6.041 c-0.807,0.809-1.88,1.254-3.021,1.254C35.082,79.189,34.009,78.744,33.201,77.936z"/><path fill="#FFF" d="M81.181,69.496c-1.501-1.5-3.464-2.254-5.43-2.254c-1.485,0-2.966,0.436-4.249,1.287L42.798,41.256 c1.75-2.945,1.386-6.799-1.149-9.332c-1.497-1.498-3.461-2.248-5.425-2.248c-1.962,0-3.926,0.75-5.423,2.248 c-2.998,2.996-2.998,7.854-0.002,10.85c1.499,1.498,3.463,2.248,5.426,2.248c1.485,0,2.967-0.43,4.251-1.289l28.703,27.279 c-1.748,2.945-1.381,6.799,1.152,9.332c1.497,1.496,3.459,2.248,5.422,2.248c1.964,0,3.929-0.752,5.429-2.248 C84.175,77.348,84.175,72.488,81.181,69.496z M33.203,40.369c-0.808-0.811-1.252-1.881-1.252-3.023 c0-1.137,0.445-2.211,1.254-3.02c0.807-0.809,1.879-1.25,3.019-1.25c1.142,0,2.214,0.441,3.021,1.25 c1.668,1.668,1.668,4.375,0.001,6.043c-0.807,0.811-1.88,1.252-3.022,1.252C35.084,41.621,34.009,41.18,33.203,40.369z M78.779,77.936c-0.809,0.809-1.884,1.258-3.027,1.258c-1.14,0-2.212-0.449-3.018-1.252c-1.667-1.664-1.667-4.383-0.001-6.047 c0.807-0.807,1.879-1.252,3.018-1.252c1.144,0,2.217,0.445,3.027,1.258C80.442,73.563,80.442,76.271,78.779,77.936z"/><path fill="#FFF" d="M81.181,31.924c-1.5-1.498-3.463-2.248-5.427-2.248c-1.487,0-2.972,0.434-4.257,1.293L57.142,17.352 l-2.339,2.465l14.373,13.637c-1.744,2.941-1.377,6.787,1.155,9.32c1.497,1.498,3.46,2.248,5.424,2.248 c1.963,0,3.926-0.75,5.423-2.248C84.177,39.777,84.177,34.92,81.181,31.924z M78.773,40.369 c-0.807,0.811-1.878,1.252-3.019,1.252c-1.14,0-2.212-0.441-3.02-1.252c-1.666-1.664-1.667-4.375-0.002-6.043 c0.808-0.809,1.882-1.25,3.022-1.25c1.141,0,2.215,0.441,3.023,1.25C80.442,35.994,80.44,38.705,78.773,40.369z"/></g><g><path fill="#FFF" d="M55.989,112.059c-30.839,0-55.928-25.09-55.928-55.928c0-30.84,25.089-55.928,55.928-55.928 c30.838,0,55.928,25.088,55.928,55.928C111.917,86.969,86.828,112.059,55.989,112.059z M55.989,3.602 c-28.964,0-52.528,23.564-52.528,52.529c0,28.963,23.563,52.527,52.528,52.527c28.964,0,52.527-23.564,52.527-52.527 C108.517,27.166,84.953,3.602,55.989,3.602z"/></g></g><g><path fill="#FFF" d="M145.706,64.098c0.678,0,1.352,0.055,1.352,0.391c0,7.35,5.258,7.176,8.647,7.176 c4.122,0,8.872,0.113,8.872-6.777c0-6.16-5.202-7.064-9.891-8.643c-4.63-1.582-9.884-3.164-9.884-9.945 c0-8.639,6.667-8.699,10.958-8.699c3.784,0,11.015,0.061,11.015,9.66c0,0.396-0.677,0.396-1.357,0.396 c-0.735,0-1.351,0-1.351-0.396c0-6.951-5.311-6.891-8.251-6.891c-3.557,0-8.308-0.227-8.308,5.873 c0,5.203,4.525,6.271,8.591,7.572c4.406,1.357,11.242,2.99,11.242,11.125c0,9.438-7.005,9.49-11.637,9.49 c-4.179,0-11.412-0.053-11.412-9.941C144.292,64.152,144.972,64.098,145.706,64.098z"/><path fill="#FFF" d="M187.698,47.709v-9.654c0-0.395,0.624-0.395,1.358-0.395c0.679,0,1.357,0,1.357,0.395v9.654 c0,6.385,2.428,15.365,4.576,22.486c2.601-7.061,4.517-15.758,4.573-15.758h3.619c0,0,1.975,8.637,4.464,15.758h0.168 c2.144-7.121,4.463-16.148,4.463-22.486c0-1.184,0.056-8.586,0.056-9.654c0-0.395,0.623-0.395,1.357-0.395 c0.734,0,1.356,0,1.356,0.395v9.654c0,6.729-2.488,16.896-5.259,25.543c-0.395,1.125-0.842,1.125-1.463,1.125h-1.188 c-0.623,0-1.02,0-1.413-1.184l-0.623-1.754c-1.019-2.883-2.313-7.686-3.672-12.996c-1.976,6.896-4.008,13.676-4.404,14.75 c-0.452,1.184-0.847,1.184-1.358,1.184h-1.357c-0.566,0-0.961,0-1.412-1.184C190.188,64.545,187.698,54.328,187.698,47.709z"/><path fill="#FFF" d="M269.377,40.426h-10.565c-0.338,0-0.338-0.627-0.338-1.357c0-0.793,0-1.408,0.338-1.408h23.842 c0.333,0,0.396,0.615,0.396,1.408c0,0.73-0.063,1.357-0.396,1.357h-10.512v33.611c0,0.34-0.623,0.34-1.353,0.34 c-0.792,0-1.412-0.053-1.412-0.34V40.426z"/><path fill="#FFF" d="M325.157,63.588c0.733,0,1.408,0,1.408,0.336c0,10.621-7.849,10.453-11.188,10.453 c-4.911,0-11.971-0.455-11.971-18.363c0-17.91,6.777-18.354,12.479-18.354c2.831,0,10.739,0,10.739,10.844 c0,0.33-0.678,0.33-1.41,0.33c-0.683,0-1.357,0-1.357-0.387c0-8.365-5.425-8.021-7.855-8.021c-4.969,0-9.826-0.225-9.826,15.588 c0,15.881,5.136,15.65,9.202,15.65c3.563,0,8.423,0.053,8.423-7.74C323.8,63.527,324.423,63.588,325.157,63.588z"/><path fill="#FFF" d="M346.982,38.055c0-0.34,0.564-0.395,1.355-0.395c0.734,0,1.356,0.055,1.356,0.395v16.492h16.495V38.055 c0-0.34,0.621-0.395,1.413-0.395c0.734,0,1.351,0.055,1.351,0.395v35.982c0,0.34-0.616,0.34-1.351,0.34 c-0.792,0-1.413,0-1.413-0.34V57.313h-16.495v16.725c0,0.34-0.622,0.34-1.356,0.34c-0.791,0-1.355,0-1.355-0.34V38.055z"/><path fill="#FFF" d="M238.116,74.037c0,0.34-0.624,0.34-1.358,0.34c-0.791,0-1.355,0-1.355-0.34V38.055 c0-0.34,0.565-0.395,1.355-0.395c0.734,0,1.358,0.055,1.358,0.395V74.037z"/><path fill="#FFF" d="M389.309,37.66c0,0,9.382,0,11.754,0c7.851,0,7.57,9.264,7.57,9.264s0.394,5.475-2.544,8.303 c5.084,2.145,4.802,9.66,4.802,9.66s0.456,9.49-8.585,9.49c-5.146,0-12.997,0-12.997,0V37.66z M401.514,54.611 c4.575,0,4.408-7.072,4.408-7.072s0.45-7.059-4.634-7.059c-1.807,0-9.205,0-9.205,0v14.131 C392.083,54.611,399.763,54.611,401.514,54.611z M402.586,71.664c5.593,0,5.593-5.873,5.593-6.832c0-6.898-4.012-7.52-4.012-7.52 h-12.084v14.352C392.083,71.664,399.592,71.664,402.586,71.664z"/><path fill="#FFF" d="M431.251,56.014c0-18.354,7.179-18.414,12.09-18.414c5.257,0,11.979,0.115,11.979,18.414 c0,18.311-6.78,18.363-11.979,18.363C438.488,74.377,431.251,74.377,431.251,56.014z M452.555,56.014 c0-16.322-5.146-15.645-9.267-15.645c-3.841,0-9.266-0.678-9.266,15.645c0,16.324,5.54,15.65,9.318,15.65 C447.351,71.664,452.555,72.402,452.555,56.014z"/><path fill="#FFF" d="M475.677,68.902c0-2.721,1.474-11.814,8.527-29.779c0.565-1.463,0.959-1.463,1.698-1.463h1.183 c0.682,0,1.022,0,1.589,1.463c7.169,18.416,8.409,26.729,8.409,29.779v5.135c0,0.34-0.847,0.34-1.355,0.34s-1.355,0-1.355-0.34 v-5.135c0-2.43-1.013-6.336-1.013-6.336h-13.957c0,0-1.017,4.291-1.017,6.336v5.135c0,0.34-0.842,0.34-1.351,0.34 s-1.358,0-1.358-0.34V68.902z M492.683,59.859c-2.265-8.982-6.049-18.701-6.329-18.701c-0.394,0.852-4.012,10.287-6.217,18.701 H492.683z"/><path fill="#FFF" d="M517.442,37.66c0,0,10.957,0,13.724,0c0.902,0,8.025,0.443,8.025,9.6c0,8.42-5.201,9.262-6.108,9.666 c-0.333,0.105-0.616,0.221-1.015,0.273l7.404,16.162c0,0.055,0,0.055,0,0.109c0,0.291-1.474,1.188-2.205,1.188 c-0.173,0-0.283-0.055-0.341-0.168l-7.793-17.119c-3.673,0-8.982,0-8.982,0s0,16.045,0,16.666c0,0.34-0.624,0.34-1.358,0.34 c-0.677,0-1.351-0.053-1.351-0.34C517.442,73.639,517.442,37.66,517.442,37.66z M531.842,54.662 c-0.226,0,4.633,0.398,4.633-7.348c0-6.889-4.801-6.889-5.364-6.889c-1.521,0-10.96,0-10.96,0v14.236 C520.151,54.662,530.709,54.662,531.842,54.662z"/><path fill="#FFF" d="M559.831,37.66c0,0,7.688,0,10.568,0c4.46,0,11.64-0.172,11.64,18.354 c0,18.252-7.063,18.363-11.188,18.363c-3.505,0-11.02,0-11.02,0V37.66z M570.8,71.664c3.042,0,8.467,0.619,8.467-15.533 c0-16.332-5.199-15.705-8.643-15.705c-2.938,0-8.08,0-8.08,0v31.238C562.544,71.664,566.784,71.664,570.8,71.664z"/></g></g></switch></svg>