<svg xmlns="http://www.w3.org/2000/svg" xmlns:xlink="http://www.w3.org/1999/xlink" id="Layer_1" width="87.19" height="87.189" x="0" y="0" enable-background="new 0 0 87.19 87.189" version="1.1" viewBox="0 0 87.19 87.189" xml:space="preserve"><switch><g><g><g><path fill="#FFF" d="M44.519,71.904L33.315,61.277c1.361-2.293,1.075-5.295-0.899-7.268c-1.167-1.17-2.698-1.754-4.228-1.754 c-1.53,0-3.06,0.584-4.228,1.754c-2.337,2.336-2.337,6.119-0.002,8.455c1.168,1.17,2.7,1.752,4.23,1.752 c1.159,0,2.316-0.338,3.318-1.006l11.189,10.613L44.519,71.904z M25.832,60.592c-1.298-1.297-1.297-3.412,0.002-4.709 c0.629-0.631,1.465-0.977,2.354-0.977s1.725,0.346,2.354,0.977c1.299,1.297,1.3,3.412,0.001,4.709 c-0.629,0.631-1.466,0.977-2.355,0.977C27.298,61.568,26.462,61.223,25.832,60.592z"/><path fill="#FFF" d="M63.231,54.014c-1.169-1.17-2.7-1.758-4.232-1.758c-1.157,0-2.312,0.34-3.312,1.004L33.313,32 c1.364-2.295,1.08-5.299-0.896-7.273c-1.167-1.168-2.698-1.752-4.228-1.752c-1.53,0-3.061,0.584-4.228,1.752 c-2.337,2.336-2.337,6.121-0.002,8.457c1.168,1.168,2.699,1.752,4.23,1.752c1.157,0,2.313-0.334,3.313-1.004l22.374,21.264 c-1.362,2.295-1.076,5.299,0.898,7.273c1.167,1.166,2.697,1.752,4.227,1.752c1.531,0,3.063-0.586,4.231-1.752 C65.565,60.133,65.565,56.346,63.231,54.014z M25.833,31.309c-0.629-0.631-0.976-1.465-0.976-2.355 c0-0.887,0.347-1.725,0.978-2.354c0.629-0.631,1.464-0.975,2.354-0.975c0.89,0,1.725,0.344,2.354,0.975 c1.299,1.299,1.299,3.41,0.001,4.709c-0.629,0.633-1.466,0.977-2.355,0.977C27.3,32.285,26.462,31.941,25.833,31.309z M61.359,60.592c-0.63,0.631-1.468,0.98-2.359,0.98c-0.889,0-1.725-0.35-2.353-0.977c-1.299-1.297-1.299-3.416,0-4.713 c0.628-0.629,1.464-0.977,2.353-0.977c0.891,0,1.729,0.348,2.359,0.98C62.656,57.184,62.656,59.295,61.359,60.592z"/><path fill="#FFF" d="M63.231,24.727c-1.168-1.168-2.699-1.752-4.23-1.752c-1.159,0-2.317,0.338-3.319,1.008L44.493,13.367 l-1.823,1.922l11.203,10.629c-1.359,2.293-1.073,5.291,0.9,7.266c1.167,1.168,2.698,1.752,4.228,1.752 c1.53,0,3.061-0.584,4.228-1.752C65.566,30.848,65.566,27.063,63.231,24.727z M61.355,31.309 c-0.629,0.633-1.464,0.977-2.354,0.977s-1.725-0.344-2.354-0.977c-1.299-1.297-1.299-3.41-0.001-4.709 c0.629-0.631,1.466-0.975,2.355-0.975c0.89,0,1.727,0.344,2.356,0.975C62.656,27.898,62.655,30.012,61.355,31.309z"/></g><g><path fill="#FFF" d="M43.595,87.189C19.557,87.189,0,67.633,0,43.596C0,19.557,19.557,0,43.595,0 C67.633,0,87.19,19.557,87.19,43.596C87.19,67.633,67.633,87.189,43.595,87.189z M43.595,2.65 C21.018,2.65,2.65,21.018,2.65,43.596c0,22.576,18.368,40.943,40.944,40.943c22.577,0,40.945-18.367,40.945-40.943 C84.54,21.018,66.172,2.65,43.595,2.65z"/></g></g></g></switch></svg>